<?xml version="1.0" encoding="utf-8"?>
<svg width="64" height="64" viewBox="0 0 64 64" fill="none" xmlns="http://www.w3.org/2000/svg">
  <g>
    <path d="M64 0C61.2333 8.23333 55.9 13.5667 48 16C39.7667 18.7667 34.4333 24.1 32 32C29.2333 40.2333 23.9 45.5667 16 48C7.76667 50.7667 2.43333 56.1 0 64C0 64 0 32 0 32C2.43333 24.1 7.76667 18.7667 16 16C23.9 13.5667 29.2333 8.23333 32 0C32 0 64 0 64 0C64 0 64 0 64 0ZM32 64C34.4333 56.1 39.7667 50.7667 48 48C55.9 45.5667 61.2333 40.2333 64 32C64 32 64 64 64 64L32 64C32 64 32 64 32 64Z" fill="#000000" fill-opacity="0" />
    <path d="M32 64C32 64 0 64 0 64C2.43333 56.1 7.76667 50.7667 16 48C23.9 45.5667 29.2333 40.2333 32 32C34.4333 24.1 39.7667 18.7667 48 16C55.9 13.5667 61.2333 8.23333 64 0C64 0 64 32 64 32C61.2333 40.2333 55.9 45.5667 48 48C39.7667 50.7667 34.4333 56.1 32 64C32 64 32 64 32 64ZM32 0C29.2333 8.23333 23.9 13.5667 16 16C7.76667 18.7667 2.43333 24.1 0 32C0 32 0 0 0 0L32 0C32 0 32 0 32 0Z" fill="currentColor" />
  </g>
</svg>