<svg width="0" height="0" fill="none" style="visibility: hidden; position: absolute;" aria-hidden="true">
    <symbol id="corridor-tile" width="64" height="64" viewBox="0 0 64 64" fill="none" xmlns="http://www.w3.org/2000/svg">
        <g>
            <path d="M18.45 37.55C18.45 37.55 21.35 40.15 21.35 40.15C22.1833 41.05 22.6167 41.8667 22.65 42.6C22.7833 43.3667 22.55 44.2667 21.95 45.3C21.95 45.3 19.65 48.5 19.65 48.5C19.65 48.5 17 51.45 17 51.45C16.1333 52.25 15.3167 52.6833 14.55 52.75C13.8167 52.85 12.9333 52.6 11.9 52C11.9 52 8.65 49.75 8.65 49.75C8.65 49.75 5.75 47.1 5.75 47.1C4.91667 46.2 4.48333 45.3833 4.45 44.65C4.35 43.9167 4.6 43.0333 5.2 42C5.2 42 7.45 38.75 7.45 38.75C7.45 38.75 10.1 35.8 10.1 35.8C10.9667 35 11.7833 34.5667 12.55 34.5C13.2833 34.4 14.1667 34.65 15.2 35.25C15.2 35.25 18.45 37.55 18.45 37.55L18.45 37.55ZM59.55 0C59.55 0 60.75 1.4 60.75 1.4C61.45 2.36667 61.8 3.23333 61.8 4C61.8 4.73333 61.45 5.58333 60.75 6.55C60.75 6.55 58.15 9.5 58.15 9.5C58.15 9.5 55.2 12.15 55.2 12.15C54.2333 12.85 53.3667 13.1833 52.6 13.15C51.8667 13.1833 51.0167 12.85 50.05 12.15C50.05 12.15 47.1 9.5 47.1 9.5C47.1 9.5 44.45 6.55 44.45 6.55C43.75 5.58333 43.4167 4.73333 43.45 4C43.4167 3.23333 43.75 2.36667 44.45 1.4C44.45 1.4 45.7 0 45.7 0L59.55 0L59.55 0ZM41.55 0C41.5833 1.06667 41.1 2.28333 40.1 3.65C40.1 3.65 36.4 7.8 36.4 7.8C36.4 7.8 32.25 11.5 32.25 11.5C30.8833 12.5 29.6667 12.9833 28.6 12.95C27.5667 12.9833 26.3667 12.5 25 11.5C25 11.5 20.85 7.8 20.85 7.8C18.9833 5.86667 17.75 4.48333 17.15 3.65C16.15 2.28333 15.6667 1.06667 15.7 0C15.7 0 41.55 0 41.55 0C41.55 0 41.55 0 41.55 0ZM11.4 0L13.4 2.05C13.4 2.05 15.8 5.2 15.8 5.2C16.4333 6.23333 16.7 7.11667 16.6 7.85C16.5667 8.61667 16.1667 9.45 15.4 10.35C15.4 10.35 12.55 13.1 12.55 13.1C12.55 13.1 9.45 15.5 9.45 15.5C8.41667 16.1333 7.53333 16.4167 6.8 16.35C6.03333 16.3167 5.2 15.9167 4.3 15.15C4.3 15.15 1.55 12.3 1.55 12.3L0 10.3L0 3.55L2.35 1.25L4 0L11.4 0L11.4 0ZM0 13.55L0.05 13.55L4.35 17.4C4.35 17.4 8.2 21.75 8.2 21.75C9.23333 23.1833 9.73333 24.45 9.7 25.55C9.73333 26.65 9.23333 27.9 8.2 29.3C8.2 29.3 4.35 33.65 4.35 33.65L0.05 37.5L0 37.55L0 13.55L0 13.55ZM0 50L0.3 50.2L2.35 52.05C2.35 52.05 4.15 54.05 4.15 54.05C4.65 54.75 4.88333 55.35 4.85 55.85C4.88333 56.3833 4.65 56.9833 4.15 57.65C4.15 57.65 2.35 59.7 2.35 59.7L0.3 61.5L0 61.75L0 50L0 50ZM4 64C4 64 5.5 62.85 5.5 62.85C6.5 62.2167 7.38333 61.95 8.15 62.05C8.88333 62.05 9.71667 62.45 10.65 63.25C10.65 63.25 11.4 64 11.4 64L4 64L4 64ZM15.7 64C15.6667 62.9667 16.15 61.7833 17.15 60.45C17.75 59.6167 18.9833 58.2167 20.85 56.25C20.85 56.25 25 52.55 25 52.55C26.3667 51.55 27.5667 51.0667 28.6 51.1C29.6667 51.0667 30.8833 51.55 32.25 52.55C32.25 52.55 36.4 56.25 36.4 56.25C36.4 56.25 40.1 60.45 40.1 60.45C41.1 61.7833 41.5833 62.9667 41.55 64C41.55 64 15.7 64 15.7 64C15.7 64 15.7 64 15.7 64ZM45.65 64L47.1 62.45C47.1 62.45 50.05 59.85 50.05 59.85C51.0167 59.15 51.8667 58.8 52.6 58.8C53.3667 58.8 54.2333 59.15 55.2 59.85C55.2 59.85 58.15 62.45 58.15 62.45L59.6 64L45.65 64L45.65 64ZM64 61.7C63.4333 62.0667 62.9333 62.2333 62.5 62.2C61.9667 62.2333 61.3667 62 60.7 61.5C60.7 61.5 58.65 59.7 58.65 59.7C58.65 59.7 56.85 57.65 56.85 57.65C56.35 56.9833 56.1167 56.3833 56.15 55.85C56.1167 55.35 56.35 54.75 56.85 54.05C56.85 54.05 58.65 52.05 58.65 52.05C59.6167 51.1167 60.3 50.5 60.7 50.2C61.3667 49.7333 61.9667 49.5 62.5 49.5C62.9333 49.5 63.4333 49.6667 64 50C64 50 64 61.7 64 61.7C64 61.7 64 61.7 64 61.7ZM64 37.55C62.6 38.55 61.35 39.0333 60.25 39C59.15 39.0333 57.9 38.5333 56.5 37.5C56.5 37.5 52.15 33.65 52.15 33.65C52.15 33.65 48.3 29.3 48.3 29.3C47.2667 27.9 46.7667 26.65 46.8 25.55C46.7667 24.45 47.2667 23.1833 48.3 21.75C48.9333 20.8833 50.2167 19.4333 52.15 17.4C52.15 17.4 56.5 13.55 56.5 13.55C57.9 12.5167 59.15 12.0167 60.25 12.05C61.35 12.0167 62.6 12.5167 64 13.55C64 13.55 64 37.55 64 37.55C64 37.55 64 37.55 64 37.55ZM64 10.3C64 10.3 63.2 9.15 63.2 9.15C62.5333 8.15 62.25 7.26667 62.35 6.5C62.3833 5.76667 62.7833 4.95 63.55 4.05C63.55 4.05 64 3.55 64 3.55L64 10.3L64 10.3ZM44.9 10.85C44.9 10.85 46.7 12.9 46.7 12.9C47.2 13.5667 47.4333 14.15 47.4 14.65C47.4333 15.1833 47.2 15.7833 46.7 16.45C46.7 16.45 44.9 18.5 44.9 18.5C44.9 18.5 42.85 20.35 42.85 20.35C42.1833 20.8167 41.5833 21.05 41.05 21.05C40.55 21.05 39.9667 20.8167 39.3 20.35C39.3 20.35 37.25 18.5 37.25 18.5C37.25 18.5 35.4 16.45 35.4 16.45C34.9333 15.7833 34.7 15.1833 34.7 14.65C34.7 14.15 34.9333 13.5667 35.4 12.9C35.7 12.5 36.3167 11.8167 37.25 10.85C37.25 10.85 39.3 9.05 39.3 9.05C39.9667 8.55 40.55 8.3 41.05 8.3C41.5833 8.3 42.1833 8.55 42.85 9.05C42.85 9.05 44.9 10.85 44.9 10.85L44.9 10.85ZM39.6 24.95C39.6 24.95 42.75 28.95 42.75 28.95C43.5833 30.2167 43.9667 31.3333 43.9 32.3C43.8667 33.2667 43.35 34.35 42.35 35.55C42.35 35.55 38.75 39.15 38.75 39.15C38.75 39.15 34.75 42.3 34.75 42.3C33.45 43.1333 32.3167 43.5 31.35 43.4C30.4167 43.4 29.35 42.9167 28.15 41.95C28.15 41.95 24.55 38.35 24.55 38.35C24.55 38.35 21.35 34.35 21.35 34.35C20.5167 33.0167 20.15 31.8833 20.25 30.95C20.2833 29.9833 20.7833 28.9 21.75 27.7C21.75 27.7 25.35 24.1 25.35 24.1C25.35 24.1 29.35 20.95 29.35 20.95C30.65 20.1167 31.7833 19.7333 32.75 19.8C33.7167 19.8333 34.8 20.35 36 21.35C36 21.35 39.6 24.95 39.6 24.95L39.6 24.95ZM55.25 40.7C55.25 40.7 57.9 43.65 57.9 43.65C58.6 44.6167 58.9333 45.4667 58.9 46.2C58.9333 46.9667 58.6 47.8333 57.9 48.8C57.9 48.8 55.25 51.75 55.25 51.75C55.25 51.75 52.3 54.4 52.3 54.4C51.3333 55.1 50.4667 55.4333 49.7 55.4C48.9667 55.4333 48.1167 55.1 47.15 54.4C47.15 54.4 44.2 51.75 44.2 51.75C44.2 51.75 41.6 48.8 41.6 48.8C40.8667 47.8333 40.5167 46.9667 40.55 46.2C40.5167 45.4667 40.8667 44.6167 41.6 43.65C41.6 43.65 44.2 40.7 44.2 40.7C44.2 40.7 47.15 38.05 47.15 38.05C48.1167 37.35 48.9667 37.0167 49.7 37.05C50.4667 37.0167 51.3333 37.35 52.3 38.05C52.3 38.05 55.25 40.7 55.25 40.7L55.25 40.7ZM22.3 16.3C22.3 16.3 23.8 18.6 23.8 18.6C24.1667 19.3 24.3 19.9167 24.2 20.45C24.1667 20.95 23.85 21.5 23.25 22.1C23.25 22.1 21.15 23.85 21.15 23.85C21.15 23.85 18.85 25.35 18.85 25.35C18.15 25.75 17.5333 25.9 17 25.8C16.5 25.7667 15.95 25.45 15.35 24.85C15.35 24.85 13.6 22.75 13.6 22.75C13.6 22.75 12.1 20.45 12.1 20.45C11.7 19.7167 11.55 19.1 11.65 18.6C11.7167 18.1 12.0333 17.55 12.6 16.95C12.6 16.95 14.7 15.15 14.7 15.15C14.7 15.15 17 13.65 17 13.65C17.7333 13.2833 18.35 13.1333 18.85 13.2C19.35 13.2667 19.9 13.6 20.5 14.2C20.5 14.2 22.3 16.3 22.3 16.3L22.3 16.3Z" fill="#FFFFFF"/>
        </g>
    </symbol>
    <symbol id="door-tile" width="64" height="64" viewBox="0 0 64 64" fill="none" xmlns="http://www.w3.org/2000/svg">
        <g>
            <path d="M1 63C1 63 31 63 31 63L31 33L1 33L1 63C1 63 1 63 1 63ZM61 4C61 4 60.75 4.75 60.75 4.75C60.75 4.75 60 5 60 5C59.7333 5 59.5 4.91667 59.3 4.75C59.1 4.55 59 4.3 59 4C59 3.73333 59.1 3.5 59.3 3.3C59.5 3.1 59.7333 3 60 3C60.3 3 60.55 3.1 60.75 3.3C60.75 3.3 61 4 61 4C61 4 61 4 61 4ZM37 4C37 4 36.75 4.75 36.75 4.75C36.75 4.75 36 5 36 5C36 5 35.3 4.75 35.3 4.75C35.1 4.55 35 4.3 35 4C35 3.73333 35.1 3.5 35.3 3.3C35.5 3.1 35.7333 3 36 3C36.3 3 36.55 3.1 36.75 3.3C36.75 3.3 37 4 37 4C37 4 37 4 37 4ZM37 28C37 28 36.75 28.75 36.75 28.75C36.75 28.75 36 29 36 29C36 29 35.3 28.75 35.3 28.75C35.1 28.55 35 28.3 35 28C35 27.7333 35.1 27.5 35.3 27.3C35.5 27.1 35.7333 27 36 27C36.3 27 36.55 27.1 36.75 27.3C36.75 27.3 37 28 37 28C37 28 37 28 37 28ZM61 28C61 28 60.75 28.75 60.75 28.75C60.75 28.75 60 29 60 29C59.7333 29 59.5 28.9167 59.3 28.75C59.1 28.55 59 28.3 59 28C59 27.7333 59.1 27.5 59.3 27.3C59.5 27.1 59.7333 27 60 27C60.3 27 60.55 27.1 60.75 27.3C60.75 27.3 61 28 61 28C61 28 61 28 61 28ZM63 1C63 1 33 1 33 1L33 31L63 31L63 1C63 1 63 1 63 1ZM61 36C61 36 60.75 36.75 60.75 36.75C60.75 36.75 60 37 60 37C59.7333 37 59.5 36.9167 59.3 36.75C59.1 36.55 59 36.3 59 36C59 35.7333 59.1 35.5 59.3 35.3C59.5 35.1 59.7333 35 60 35C60.3 35 60.55 35.1 60.75 35.3C60.75 35.3 61 36 61 36C61 36 61 36 61 36ZM37 36C37 36 36.75 36.75 36.75 36.75C36.75 36.75 36 37 36 37C36 37 35.3 36.75 35.3 36.75C35.1 36.55 35 36.3 35 36C35 35.7333 35.1 35.5 35.3 35.3C35.5 35.1 35.7333 35 36 35C36.3 35 36.55 35.1 36.75 35.3C36.75 35.3 37 36 37 36C37 36 37 36 37 36ZM37 60C37 60 36.75 60.75 36.75 60.75C36.75 60.75 36 61 36 61C36 61 35.3 60.75 35.3 60.75C35.1 60.55 35 60.3 35 60C35 59.7333 35.1 59.5 35.3 59.3C35.5 59.1 35.7333 59 36 59C36.3 59 36.55 59.1 36.75 59.3C36.75 59.3 37 60 37 60C37 60 37 60 37 60ZM61 60C61 60 60.75 60.75 60.75 60.75C60.75 60.75 60 61 60 61C59.7333 61 59.5 60.9167 59.3 60.75C59.1 60.55 59 60.3 59 60C59 59.7333 59.1 59.5 59.3 59.3C59.5 59.1 59.7333 59 60 59C60.3 59 60.55 59.1 60.75 59.3C60.75 59.3 61 60 61 60C61 60 61 60 61 60ZM63 63C63 63 63 33 63 33L33 33L33 63L63 63C63 63 63 63 63 63ZM64 64C64 64 0 64 0 64L0 0L64 0L64 64C64 64 64 64 64 64ZM29 4C29 4 28.75 4.75 28.75 4.75C28.75 4.75 28 5 28 5C28 5 27.3 4.75 27.3 4.75C27.1 4.55 27 4.3 27 4C27 3.73333 27.1 3.5 27.3 3.3C27.5 3.1 27.7333 3 28 3C28.3 3 28.55 3.1 28.75 3.3C28.75 3.3 29 4 29 4C29 4 29 4 29 4ZM5 4C5 4 4.75 4.75 4.75 4.75C4.75 4.75 4 5 4 5C3.73333 5 3.5 4.91667 3.3 4.75C3.1 4.55 3 4.3 3 4C3 3.73333 3.1 3.5 3.3 3.3C3.5 3.1 3.73333 3 4 3C4.3 3 4.55 3.1 4.75 3.3C4.75 3.3 5 4 5 4C5 4 5 4 5 4ZM5 28C5 28 4.75 28.75 4.75 28.75C4.75 28.75 4 29 4 29C3.73333 29 3.5 28.9167 3.3 28.75C3.1 28.55 3 28.3 3 28C3 27.7333 3.1 27.5 3.3 27.3C3.5 27.1 3.73333 27 4 27C4.3 27 4.55 27.1 4.75 27.3C4.75 27.3 5 28 5 28C5 28 5 28 5 28ZM29 28C29 28 28.75 28.75 28.75 28.75C28.75 28.75 28 29 28 29C28 29 27.3 28.75 27.3 28.75C27.1 28.55 27 28.3 27 28C27 27.7333 27.1 27.5 27.3 27.3C27.5 27.1 27.7333 27 28 27C28.3 27 28.55 27.1 28.75 27.3C28.75 27.3 29 28 29 28C29 28 29 28 29 28ZM1 1C1 1 1 31 1 31L31 31L31 1L1 1C1 1 1 1 1 1ZM29 36C29 36 28.75 36.75 28.75 36.75C28.75 36.75 28 37 28 37C28 37 27.3 36.75 27.3 36.75C27.1 36.55 27 36.3 27 36C27 35.7333 27.1 35.5 27.3 35.3C27.5 35.1 27.7333 35 28 35C28.3 35 28.55 35.1 28.75 35.3C28.75 35.3 29 36 29 36C29 36 29 36 29 36ZM5 36C5 36 4.75 36.75 4.75 36.75C4.75 36.75 4 37 4 37C3.73333 37 3.5 36.9167 3.3 36.75C3.1 36.55 3 36.3 3 36C3 35.7333 3.1 35.5 3.3 35.3C3.5 35.1 3.73333 35 4 35C4.3 35 4.55 35.1 4.75 35.3C4.75 35.3 5 36 5 36C5 36 5 36 5 36ZM5 60C5 60 4.75 60.75 4.75 60.75C4.75 60.75 4 61 4 61C3.73333 61 3.5 60.9167 3.3 60.75C3.1 60.55 3 60.3 3 60C3 59.7333 3.1 59.5 3.3 59.3C3.5 59.1 3.73333 59 4 59C4.3 59 4.55 59.1 4.75 59.3C4.75 59.3 5 60 5 60C5 60 5 60 5 60ZM29 60C29 60 28.75 60.75 28.75 60.75C28.75 60.75 28 61 28 61C28 61 27.3 60.75 27.3 60.75C27.1 60.55 27 60.3 27 60C27 59.7333 27.1 59.5 27.3 59.3C27.5 59.1 27.7333 59 28 59C28.3 59 28.55 59.1 28.75 59.3C28.75 59.3 29 60 29 60C29 60 29 60 29 60Z" fill="#FFFFFF"/>
        </g>
    </symbol>
    <symbol id="floor-tile" width="62" height="62" viewBox="0 0 62 62" fill="none" xmlns="http://www.w3.org/2000/svg">
        <g>
            <path d="M8 14L16 22L8 30L0 22L8 14L8 14ZM40 14L48 22L40 30L32 22L40 14L40 14ZM54 0L62 8L54 16L46 8L54 0L54 0ZM40 46L48 54L40 62L32 54L40 46L40 46ZM54 32L62 40L54 48L46 40L54 32L54 32ZM22 0L30 8L22 16L14 8L22 0L22 0ZM8 46L16 54L8 62L0 54L8 46L8 46ZM22 32L30 40L22 48L14 40L22 32L22 32Z" fill="#FFFFFF"/>
        </g>
    </symbol>
    <symbol id="player-tile" xmlns="http://www.w3.org/2000/svg" viewBox="0 0 24 24" fill="currentColor">
        <path d="M2.80577 5.20006L7.00505 7.99958L11.1913 2.13881C11.5123 1.6894 12.1369 1.58531 12.5863 1.90631C12.6761 1.97045 12.7546 2.04901 12.8188 2.13881L17.0051 7.99958L21.2043 5.20006C21.6639 4.89371 22.2847 5.01788 22.5911 5.47741C22.7228 5.67503 22.7799 5.91308 22.7522 6.14895L21.109 20.1164C21.0497 20.62 20.6229 20.9996 20.1158 20.9996H3.8943C3.38722 20.9996 2.9604 20.62 2.90115 20.1164L1.25792 6.14895C1.19339 5.60045 1.58573 5.10349 2.13423 5.03896C2.37011 5.01121 2.60816 5.06832 2.80577 5.20006ZM12.0051 14.9996C13.1096 14.9996 14.0051 14.1042 14.0051 12.9996C14.0051 11.895 13.1096 10.9996 12.0051 10.9996C10.9005 10.9996 10.0051 11.895 10.0051 12.9996C10.0051 14.1042 10.9005 14.9996 12.0051 14.9996Z"></path>
    </symbol>
    <symbol id="room-tile" width="64" height="64" viewBox="0 0 64 64" fill="none" xmlns="http://www.w3.org/2000/svg">
        <g>
            <path fill="#FFFFFF" d="M62 0L64 0L64 2L50 16L64 30L64 34L50 48L64 62L64 64L62 64L48 50L34 64L30 64L16 50L2 64L0 64L0 62L14 48L0 34L0 30L14 16L0 2L0 0L2 0L16 14L30 0L34 0L48 14L62 0L62 0ZM32 2L18 16L32 30L46 16L32 2L32 2ZM34 32L48 46L62 32L48 18L34 32L34 32ZM32 34L18 48L32 62L46 48L32 34L32 34ZM2 32L16 46L30 32L16 18L2 32L2 32Z"/>
        </g>
    </symbol>
</svg>