<?xml version="1.0" encoding="utf-8"?>
<svg width="64" height="64" viewBox="0 0 64 64" fill="none" xmlns="http://www.w3.org/2000/svg">
  <g>
    <path d="M1 63C1 63 31 63 31 63L31 33L1 33L1 63C1 63 1 63 1 63ZM61 4C61 4 60.75 4.75 60.75 4.75C60.75 4.75 60 5 60 5C59.7333 5 59.5 4.91667 59.3 4.75C59.1 4.55 59 4.3 59 4C59 3.73333 59.1 3.5 59.3 3.3C59.5 3.1 59.7333 3 60 3C60.3 3 60.55 3.1 60.75 3.3C60.75 3.3 61 4 61 4C61 4 61 4 61 4ZM37 4C37 4 36.75 4.75 36.75 4.75C36.75 4.75 36 5 36 5C36 5 35.3 4.75 35.3 4.75C35.1 4.55 35 4.3 35 4C35 3.73333 35.1 3.5 35.3 3.3C35.5 3.1 35.7333 3 36 3C36.3 3 36.55 3.1 36.75 3.3C36.75 3.3 37 4 37 4C37 4 37 4 37 4ZM37 28C37 28 36.75 28.75 36.75 28.75C36.75 28.75 36 29 36 29C36 29 35.3 28.75 35.3 28.75C35.1 28.55 35 28.3 35 28C35 27.7333 35.1 27.5 35.3 27.3C35.5 27.1 35.7333 27 36 27C36.3 27 36.55 27.1 36.75 27.3C36.75 27.3 37 28 37 28C37 28 37 28 37 28ZM61 28C61 28 60.75 28.75 60.75 28.75C60.75 28.75 60 29 60 29C59.7333 29 59.5 28.9167 59.3 28.75C59.1 28.55 59 28.3 59 28C59 27.7333 59.1 27.5 59.3 27.3C59.5 27.1 59.7333 27 60 27C60.3 27 60.55 27.1 60.75 27.3C60.75 27.3 61 28 61 28C61 28 61 28 61 28ZM63 1C63 1 33 1 33 1L33 31L63 31L63 1C63 1 63 1 63 1ZM61 36C61 36 60.75 36.75 60.75 36.75C60.75 36.75 60 37 60 37C59.7333 37 59.5 36.9167 59.3 36.75C59.1 36.55 59 36.3 59 36C59 35.7333 59.1 35.5 59.3 35.3C59.5 35.1 59.7333 35 60 35C60.3 35 60.55 35.1 60.75 35.3C60.75 35.3 61 36 61 36C61 36 61 36 61 36ZM37 36C37 36 36.75 36.75 36.75 36.75C36.75 36.75 36 37 36 37C36 37 35.3 36.75 35.3 36.75C35.1 36.55 35 36.3 35 36C35 35.7333 35.1 35.5 35.3 35.3C35.5 35.1 35.7333 35 36 35C36.3 35 36.55 35.1 36.75 35.3C36.75 35.3 37 36 37 36C37 36 37 36 37 36ZM37 60C37 60 36.75 60.75 36.75 60.75C36.75 60.75 36 61 36 61C36 61 35.3 60.75 35.3 60.75C35.1 60.55 35 60.3 35 60C35 59.7333 35.1 59.5 35.3 59.3C35.5 59.1 35.7333 59 36 59C36.3 59 36.55 59.1 36.75 59.3C36.75 59.3 37 60 37 60C37 60 37 60 37 60ZM61 60C61 60 60.75 60.75 60.75 60.75C60.75 60.75 60 61 60 61C59.7333 61 59.5 60.9167 59.3 60.75C59.1 60.55 59 60.3 59 60C59 59.7333 59.1 59.5 59.3 59.3C59.5 59.1 59.7333 59 60 59C60.3 59 60.55 59.1 60.75 59.3C60.75 59.3 61 60 61 60C61 60 61 60 61 60ZM63 63C63 63 63 33 63 33L33 33L33 63L63 63C63 63 63 63 63 63ZM64 64C64 64 0 64 0 64L0 0L64 0L64 64C64 64 64 64 64 64ZM29 4C29 4 28.75 4.75 28.75 4.75C28.75 4.75 28 5 28 5C28 5 27.3 4.75 27.3 4.75C27.1 4.55 27 4.3 27 4C27 3.73333 27.1 3.5 27.3 3.3C27.5 3.1 27.7333 3 28 3C28.3 3 28.55 3.1 28.75 3.3C28.75 3.3 29 4 29 4C29 4 29 4 29 4ZM5 4C5 4 4.75 4.75 4.75 4.75C4.75 4.75 4 5 4 5C3.73333 5 3.5 4.91667 3.3 4.75C3.1 4.55 3 4.3 3 4C3 3.73333 3.1 3.5 3.3 3.3C3.5 3.1 3.73333 3 4 3C4.3 3 4.55 3.1 4.75 3.3C4.75 3.3 5 4 5 4C5 4 5 4 5 4ZM5 28C5 28 4.75 28.75 4.75 28.75C4.75 28.75 4 29 4 29C3.73333 29 3.5 28.9167 3.3 28.75C3.1 28.55 3 28.3 3 28C3 27.7333 3.1 27.5 3.3 27.3C3.5 27.1 3.73333 27 4 27C4.3 27 4.55 27.1 4.75 27.3C4.75 27.3 5 28 5 28C5 28 5 28 5 28ZM29 28C29 28 28.75 28.75 28.75 28.75C28.75 28.75 28 29 28 29C28 29 27.3 28.75 27.3 28.75C27.1 28.55 27 28.3 27 28C27 27.7333 27.1 27.5 27.3 27.3C27.5 27.1 27.7333 27 28 27C28.3 27 28.55 27.1 28.75 27.3C28.75 27.3 29 28 29 28C29 28 29 28 29 28ZM1 1C1 1 1 31 1 31L31 31L31 1L1 1C1 1 1 1 1 1ZM29 36C29 36 28.75 36.75 28.75 36.75C28.75 36.75 28 37 28 37C28 37 27.3 36.75 27.3 36.75C27.1 36.55 27 36.3 27 36C27 35.7333 27.1 35.5 27.3 35.3C27.5 35.1 27.7333 35 28 35C28.3 35 28.55 35.1 28.75 35.3C28.75 35.3 29 36 29 36C29 36 29 36 29 36ZM5 36C5 36 4.75 36.75 4.75 36.75C4.75 36.75 4 37 4 37C3.73333 37 3.5 36.9167 3.3 36.75C3.1 36.55 3 36.3 3 36C3 35.7333 3.1 35.5 3.3 35.3C3.5 35.1 3.73333 35 4 35C4.3 35 4.55 35.1 4.75 35.3C4.75 35.3 5 36 5 36C5 36 5 36 5 36ZM5 60C5 60 4.75 60.75 4.75 60.75C4.75 60.75 4 61 4 61C3.73333 61 3.5 60.9167 3.3 60.75C3.1 60.55 3 60.3 3 60C3 59.7333 3.1 59.5 3.3 59.3C3.5 59.1 3.73333 59 4 59C4.3 59 4.55 59.1 4.75 59.3C4.75 59.3 5 60 5 60C5 60 5 60 5 60ZM29 60C29 60 28.75 60.75 28.75 60.75C28.75 60.75 28 61 28 61C28 61 27.3 60.75 27.3 60.75C27.1 60.55 27 60.3 27 60C27 59.7333 27.1 59.5 27.3 59.3C27.5 59.1 27.7333 59 28 59C28.3 59 28.55 59.1 28.75 59.3C28.75 59.3 29 60 29 60C29 60 29 60 29 60Z" fill="#FFFFFF" />
  </g>
</svg>