<?xml version="1.0" encoding="utf-8"?>
<svg width="64" height="64" viewBox="0 0 64 64" fill="none" xmlns="http://www.w3.org/2000/svg">
  <g>
    <path d="M36 64L0 64L0 0L64 0L64 4L60 4L60 8L64 8L64 64L40 64L40 60L36 60L36 64L36 64ZM4 48L4 52L8 52L8 48L4 48L4 48ZM24 44L24 48L28 48L28 44L24 44L24 44ZM24 21L24 13L16 13L16 21L24 21L24 21ZM16 25L12 25L12 29L16 29L16 25L16 25ZM8 9L8 13L12 13L12 9L8 9L8 9ZM44 48L44 44L40 44L40 48L44 48L44 48ZM36 36L32 36L32 40L36 40L36 36L36 36ZM56 48L48 48L48 56L56 56L56 48L56 48ZM28 9L32 9L32 5L28 5L28 9L28 9ZM60 16L60 12L56 12L56 16L60 16L60 16ZM36 17L32 17L32 21L36 21L36 17L36 17Z" fill="#000000" fill-opacity="0" />
    <path d="M32 13L32 17L28 17L28 13L32 13L32 13ZM60 0L60 4L56 4L56 0L60 0L60 0ZM36 60L32 60L32 56L36 56L36 60L36 60ZM56 12L52 12L52 8L56 8L56 12L56 12ZM24 5L24 1L28 1L28 5L24 5L24 5ZM52 44L52 52L44 52L44 44L52 44L52 44ZM32 32L32 36L28 36L28 32L32 32L32 32ZM40 44L36 44L36 40L40 40L40 44L40 44ZM4 5L8 5L8 9L4 9L4 5L4 5ZM12 21L12 25L8 25L8 21L12 21L12 21ZM20 17L12 17L12 9L20 9L20 17L20 17ZM20 40L24 40L24 44L20 44L20 40L20 40ZM0 44L4 44L4 48L0 48L0 44L0 44Z" fill="currentColor" transform="translate(4 4)" />
  </g>
</svg>